<?xml version="1.0" standalone="no"?>
<!DOCTYPE svg PUBLIC "-//W3C//DTD SVG 20010904//EN"
 "http://www.w3.org/TR/2001/REC-SVG-20010904/DTD/svg10.dtd">
<svg version="1.0" xmlns="http://www.w3.org/2000/svg"
 width="1080.000000pt" height="1080.000000pt" viewBox="0 0 1080.000000 1080.000000"
 preserveAspectRatio="xMidYMid meet">
<metadata>
Created by potrace 1.11, written by Peter Selinger 2001-2013
</metadata>
<g transform="translate(0.000000,1080.000000) scale(0.100000,-0.100000)"
fill="#000000" stroke="none">
<path d="M816 10785 c-126 -26 -269 -85 -376 -158 -66 -45 -196 -173 -246
-243 -60 -83 -130 -233 -156 -334 l-23 -85 0 -4565 0 -4565 23 -85 c26 -101
96 -251 156 -334 51 -71 180 -198 248 -244 76 -52 226 -120 318 -144 l85 -23
4565 0 4565 0 85 23 c92 24 242 92 318 144 68 46 197 173 248 244 59 83 130
233 154 328 20 79 20 108 20 4656 0 4548 0 4577 -20 4656 -24 95 -95 245 -154
328 -51 71 -180 198 -248 244 -73 50 -224 119 -313 144 l-80 23 -4550 2
c-3814 1 -4561 -1 -4619 -12z m6564 -2170 l0 -1015 1030 0 1030 0 0 -665 0
-665 -1010 0 -1011 0 4 -1222 c3 -1199 3 -1224 23 -1293 48 -162 96 -265 186
-396 188 -276 505 -513 899 -673 338 -137 707 -213 1097 -223 l202 -6 0 -628
0 -629 -687 0 c-655 0 -692 1 -773 20 -405 96 -701 265 -1290 733 -212 169
-321 286 -373 400 -9 21 -22 35 -27 32 -5 -3 -30 -38 -56 -78 -25 -40 -71 -98
-102 -130 -121 -125 -671 -520 -902 -648 -311 -173 -617 -280 -960 -336 -133
-21 -188 -25 -390 -25 -431 -1 -763 66 -1230 248 -226 88 -529 242 -695 353
-640 430 -1083 1094 -1290 1934 -73 298 -80 355 -79 642 1 235 4 276 28 420
72 417 221 832 439 1220 151 268 368 547 589 755 160 152 406 337 583 440 250
146 618 285 978 371 l248 59 1098 0 1098 0 6 368 c4 202 7 433 7 514 0 139 2
152 30 230 116 318 385 604 722 770 165 80 372 134 526 137 l52 1 0 -1015z"/>
<path d="M3832 6275 c-78 -13 -180 -36 -225 -51 -121 -39 -333 -143 -450 -220
-131 -86 -339 -264 -429 -368 -169 -196 -312 -496 -377 -793 -139 -634 90
-1345 583 -1811 192 -181 416 -320 660 -409 229 -83 372 -103 601 -84 181 15
300 40 518 111 315 101 479 196 725 419 223 203 457 526 552 765 18 43 40 123
51 177 18 95 19 155 19 1194 l0 1095 -1042 -1 c-1039 -1 -1044 -1 -1186 -24z"/>
</g>
</svg>
