<svg xmlns="http://www.w3.org/2000/svg" data-name="Layer 1" viewBox="0 0 100 100" x="0px" y="0px"><path d="M61.50009,53.23953A18.89794,18.89794,0,0,1,74.69972,47.96,18.14832,18.14832,0,0,1,91.55,58.45109a1.80016,1.80016,0,0,0,3.29876-1.44237A21.15238,21.15238,0,0,0,81.63141,45.4218a12.832,12.832,0,0,0,4.58079-9.94167c0-6.88128-5.163-12.47986-11.50857-12.47986a11.59734,11.59734,0,0,0-10.75913,8.0894,22.25491,22.25491,0,0,0-7.01372-3.66635,12.83123,12.83123,0,0,0,4.58267-9.943c0-6.88128-5.163-12.47986-11.50954-12.47986-6.34559,0-11.50857,5.59858-11.50857,12.47986A12.83186,12.83186,0,0,0,43.0774,27.423a22.31628,22.31628,0,0,0-7.021,3.66933,11.59765,11.59765,0,0,0-10.76005-8.092c-6.34558,0-11.50857,5.59858-11.50857,12.47986a12.832,12.832,0,0,0,4.58079,9.94167A21.15238,21.15238,0,0,0,5.15125,57.00872,1.80016,1.80016,0,1,0,8.45,58.45109,18.14832,18.14832,0,0,1,25.30028,47.96a18.87921,18.87921,0,0,1,13.20879,5.28748,12.80716,12.80716,0,0,0,4.56565,9.64584,22.31153,22.31153,0,0,0-7.01916,3.66928,11.59733,11.59733,0,0,0-10.75919-8.08952c-6.34558,0-11.50857,5.59858-11.50857,12.47985A12.83073,12.83073,0,0,0,18.37072,80.896,21.16722,21.16722,0,0,0,5.15223,92.47711,1.79985,1.79985,0,1,0,8.449,93.92241,18.15878,18.15878,0,0,1,25.30028,83.43423,18.15714,18.15714,0,0,1,42.15152,93.92192a1.79965,1.79965,0,1,0,3.29681-1.44432A21.16356,21.16356,0,0,0,32.22446,80.894a12.83115,12.83115,0,0,0,4.58048-9.94113c0-.07989-.00964-.15716-.01105-.23675a19.14374,19.14374,0,0,1,26.41234-.00183c-.0014.08014-.01117.15808-.01117.23858A12.83115,12.83115,0,0,0,67.77554,80.894,21.16356,21.16356,0,0,0,54.55167,92.4776a1.79965,1.79965,0,1,0,3.29681,1.44432A18.15714,18.15714,0,0,1,74.69972,83.43423,18.15878,18.15878,0,0,1,91.551,93.92241a1.79985,1.79985,0,1,0,3.29681-1.4453A21.16722,21.16722,0,0,0,81.62928,80.896a12.83073,12.83073,0,0,0,4.58292-9.94308c0-6.88127-5.163-12.47985-11.50857-12.47985a11.59707,11.59707,0,0,0-10.75834,8.087,22.25493,22.25493,0,0,0-7.01183-3.66647A12.807,12.807,0,0,0,61.50009,53.23953ZM25.29637,79.83271c-4.36124,0-7.909-3.98336-7.909-8.8798s3.54779-8.88028,7.909-8.88028c4.0822,0,7.45079,3.49075,7.86527,7.95274.02966.33185.04376.62786.04376.92754C33.2054,75.84935,29.65762,79.83271,25.29637,79.83271ZM74.70363,62.07263c4.36124,0,7.909,3.98385,7.909,8.88028s-3.54779,8.8798-7.909,8.8798-7.909-3.98336-7.909-8.8798c0-.29894.01416-.59423.04-.88567C67.25205,65.56405,70.621,62.07263,74.70363,62.07263Zm0-35.47279c4.36124,0,7.909,3.98385,7.909,8.88029s-3.54779,8.88028-7.909,8.88028-7.909-3.98385-7.909-8.88028c0-.29761.01422-.59149.03979-.88171C67.25156,30.09163,70.62076,26.59984,74.70363,26.59984ZM50.00391,8.6c4.36124,0,7.91,3.98384,7.91,8.88028s-3.54876,8.88028-7.91,8.88028-7.909-3.98385-7.909-8.88028S45.64266,8.6,50.00391,8.6ZM50,29.96016a18.90237,18.90237,0,0,1,13.206,5.28419c-.00141.07922-.011.15619-.011.23578a12.83178,12.83178,0,0,0,4.58072,9.94161,22.27186,22.27186,0,0,0-6.873,3.55123,11.64543,11.64543,0,0,0-10.8989-8.49973A11.64535,11.64535,0,0,0,39.1047,48.97682a22.24632,22.24632,0,0,0-6.87926-3.55612,12.83208,12.83208,0,0,0,4.5795-9.94057c0-.07892-.00958-.15521-.01093-.23377A18.92949,18.92949,0,0,1,50,29.96016ZM25.29637,26.59984c4.0825,0,7.45127,3.49124,7.86539,7.95372.02948.334.04364.62841.04364.92657,0,4.89643-3.54778,8.88028-7.909,8.88028s-7.909-3.98385-7.909-8.88028S20.93513,26.59984,25.29637,26.59984Zm24.74208,35.2311c-4.41562-.02271-7.94357-3.99539-7.94357-8.87784,0-4.89644,3.54778-8.88029,7.909-8.88029s7.91,3.98385,7.91,8.88029C57.91391,57.83647,54.38364,61.80976,50.03845,61.83094Z"/></svg>