<svg xmlns:dc="http://purl.org/dc/elements/1.1/" xmlns:cc="http://creativecommons.org/ns#" xmlns:rdf="http://www.w3.org/1999/02/22-rdf-syntax-ns#" xmlns:svg="http://www.w3.org/2000/svg" xmlns="http://www.w3.org/2000/svg" xmlns:sodipodi="http://sodipodi.sourceforge.net/DTD/sodipodi-0.dtd" xmlns:inkscape="http://www.inkscape.org/namespaces/inkscape" version="1.1" x="0px" y="0px" viewBox="0 0 100 100"><g transform="translate(0,-952.36218)"><path style="font-size:medium;font-style:normal;font-variant:normal;font-weight:normal;font-stretch:normal;text-indent:0;text-align:start;text-decoration:none;line-height:normal;letter-spacing:normal;word-spacing:normal;text-transform:none;direction:ltr;block-progression:tb;writing-mode:lr-tb;text-anchor:start;baseline-shift:baseline;opacity:1;color:#000000;fill:#000000;fill-opacity:1;stroke:none;stroke-width:4.01649474999999970;marker:none;visibility:visible;display:inline;overflow:visible;enable-background:accumulate;font-family:Sans;-inkscape-font-specification:Sans" d="M 35.125 15 C 25.805161 15 18.21875 22.62632 18.21875 31.96875 C 18.21875 41.31119 25.805161 48.90625 35.125 48.90625 C 44.444838 48.90625 52.03125 41.31119 52.03125 31.96875 C 52.03125 22.62632 44.444838 15 35.125 15 z M 35.125 19 C 42.285693 19 48.0625 24.7907 48.0625 31.96875 C 48.0625 39.14681 42.285693 44.90625 35.125 44.90625 C 27.964306 44.90625 22.1875 39.14681 22.1875 31.96875 C 22.1875 24.7907 27.964306 19 35.125 19 z M 69.71875 26.625 C 61.872403 26.625 55.46875 33.04909 55.46875 40.9375 C 55.46875 48.82588 61.872403 55.28125 69.71875 55.28125 C 77.565098 55.28125 83.96875 48.82588 83.96875 40.9375 C 83.96875 33.04909 77.565098 26.625 69.71875 26.625 z M 69.71875 30.625 C 75.409107 30.625 79.96875 35.21664 79.96875 40.9375 C 79.96875 46.65835 75.409107 51.28125 69.71875 51.28125 C 64.028393 51.28125 59.46875 46.65835 59.46875 40.9375 C 59.46875 35.21664 64.028393 30.625 69.71875 30.625 z M 35.125 53.78125 C 19.059198 53.78125 6 66.9031 6 83 A 2.0002 2.0002 0 0 0 8 85 L 62.25 85 A 2.0002 2.0002 0 0 0 64.25 83 C 64.25 76.598891 62.185568 70.697135 58.6875 65.875 C 61.860421 63.807212 65.650081 62.59375 69.71875 62.59375 C 80.258498 62.59375 88.804816 70.6608 89.8125 81 L 70.3125 81 A 2.0002 2.0002 0 1 0 70.3125 85 L 92 85 A 2.0002 2.0002 0 0 0 94 83 C 94 69.5529 83.111512 58.59375 69.71875 58.59375 C 64.688176 58.59375 60.002905 60.143125 56.125 62.78125 C 50.8231 57.246598 43.365048 53.78125 35.125 53.78125 z M 35.125 57.78125 C 48.341945 57.78125 59.034375 68.0139 60.0625 81 L 10.1875 81 C 11.215625 68.0139 21.908057 57.78125 35.125 57.78125 z " transform="translate(0,952.36218)"/></g></svg>