<svg xmlns="http://www.w3.org/2000/svg" xmlns:xlink="http://www.w3.org/1999/xlink" fill="white" version="1.1" x="0px" y="0px" viewBox="0 0 44.5 44.5" style="enable-background:new 0 0 44.5 44.5;" xml:space="preserve"><title>Asset 43</title><g><g><path d="M22.2,0C10,0,0,10,0,22.2s10,22.2,22.2,22.2s22.2-10,22.2-22.2C44.5,10,34.5,0,22.2,0z M22.2,42.5    C11.1,42.5,2,33.4,2,22.2S11.1,2,22.2,2s20.2,9.1,20.2,20.2C42.5,33.4,33.4,42.5,22.2,42.5z M29,16.9l-5.3,5.3l5.3,5.3L27.6,29    l-5.3-5.3L16.9,29l-1.4-1.4l5.3-5.3L15.5,17l1.4-1.4l5.3,5.3l5.3-5.3L29,16.9z"/></g></g></svg>