<svg xmlns="http://www.w3.org/2000/svg" xmlns:xlink="http://www.w3.org/1999/xlink" version="1.1" x="0px" y="0px" viewBox="0 0 100 100" enable-background="new 0 0 100 100" xml:space="preserve"><g><path fill="#000000" d="M94.992,68.352v23.93c0,0.184-0.022,0.369-0.054,0.543c-0.033,0.163-0.087,0.325-0.141,0.477   c-0.13,0.326-0.336,0.63-0.597,0.901c-0.26,0.26-0.554,0.445-0.868,0.575c-0.076,0.033-0.152,0.065-0.239,0.098   c-0.26,0.076-0.543,0.119-0.814,0.119h-23.93c-1.498,0-2.713-1.216-2.713-2.713c0-1.498,1.216-2.713,2.713-2.713h17.375   L56.149,59.995c-1.064-1.064-1.064-2.778,0-3.842c1.064-1.064,2.778-1.064,3.842,0l29.574,29.574V68.352   c0-1.498,1.215-2.713,2.713-2.713C93.776,65.639,94.992,66.854,94.992,68.352z"/></g><g><path fill="#000000" d="M43.831,60.006L14.268,89.569h17.375c1.498,0,2.713,1.215,2.713,2.713c0,1.498-1.215,2.713-2.713,2.713   H7.713c-0.271,0-0.553-0.043-0.814-0.119c-0.087-0.033-0.163-0.065-0.239-0.098c-0.315-0.13-0.608-0.315-0.868-0.575   c-0.195-0.196-0.358-0.423-0.477-0.662c-0.043-0.076-0.076-0.152-0.108-0.239C5.065,92.977,5,92.63,5,92.283v-23.93   c0-1.498,1.216-2.713,2.713-2.713c1.498,0,2.713,1.215,2.713,2.713v17.375L39.99,56.164c1.064-1.053,2.778-1.053,3.842,0   C44.884,57.228,44.884,58.942,43.831,60.006z"/></g><g><path fill="#000000" d="M94.992,7.717v23.93c0,1.498-1.216,2.713-2.713,2.713c-1.498,0-2.713-1.215-2.713-2.713V14.272   L60.111,43.727c-0.532,0.532-1.226,0.792-1.921,0.792c-0.694,0-1.389-0.26-1.921-0.792c-1.053-1.064-1.053-2.778,0-3.842   l29.454-29.454H68.348c-1.498,0-2.713-1.216-2.713-2.713c0-1.498,1.216-2.713,2.713-2.713h23.93c0.271,0,0.554,0.043,0.814,0.119   c0.087,0.033,0.163,0.065,0.239,0.098c0.315,0.13,0.608,0.326,0.868,0.575c0.26,0.271,0.467,0.575,0.597,0.901   c0.054,0.152,0.108,0.315,0.141,0.478C94.97,7.348,94.992,7.533,94.992,7.717z"/></g><g><path fill="#000000" d="M94.937,92.825c0.033-0.174,0.054-0.358,0.054-0.543v-0.26C95.013,92.293,94.992,92.565,94.937,92.825z"/></g><g><path fill="#000000" d="M43.647,43.651c-0.532,0.521-1.227,0.792-1.921,0.792s-1.389-0.271-1.921-0.792L10.426,14.272v17.375   c0,1.498-1.215,2.713-2.713,2.713C6.216,34.361,5,33.146,5,31.648V7.717c0-0.347,0.065-0.695,0.206-1.02   C5.239,6.61,5.271,6.534,5.315,6.458C5.434,6.22,5.597,5.992,5.792,5.797c0.261-0.25,0.554-0.445,0.868-0.575   c0.076-0.032,0.152-0.065,0.239-0.098C7.16,5.047,7.442,5.004,7.713,5.004h23.93c1.498,0,2.713,1.215,2.713,2.713   c0,1.498-1.215,2.713-2.713,2.713H14.268l29.379,29.378C44.7,40.873,44.7,42.587,43.647,43.651z"/></g><g><path fill="#000000" d="M94.992,7.978v-0.26c0-0.185-0.022-0.369-0.054-0.543C94.992,7.435,95.013,7.706,94.992,7.978z"/></g></svg>